<svg width="73" height="108" viewBox="0 0 73 108" fill="none" xmlns="http://www.w3.org/2000/svg">
<path d="M40.7558 9.44498L39.8876 12.9029L40.3179 12.8322L40.7484 12.7614L50.5456 24.6331C51.5396 23.733 54.0891 22.5257 56.3354 24.8971C58.0039 26.9803 61.1392 31.5336 60.3326 33.0807C60.2123 33.3114 60.0155 33.6064 59.7608 33.9482C58.4996 35.6412 55.821 38.4812 54.0095 40.3294C53.7341 40.6103 53.4787 40.8684 53.2514 41.096L51.9764 42.0791L50.1796 43.9215L49.6335 43.6245C48.8579 44.3966 47.2528 46.016 47.037 46.3167C45.6353 48.2577 44.4916 49.2331 43.6059 49.6459L43.1883 51.8116C43.4171 52.4009 43.4881 53.6842 42.2002 54.5402C44.564 57.0888 42.6006 59.218 41.3235 59.9641C41.1645 60.0265 40.9388 60.0927 40.688 60.1317L40.3387 61.7046C42.7371 63.4574 41.5444 64.8112 40.6483 65.2689C40.4135 65.4731 40.0408 65.7296 39.6436 65.8795L38.9988 69.6015L39.7593 69.9458C39.8612 70.4816 39.8191 71.5936 38.8358 71.7552C38.5322 72.424 38.7913 74.3042 38.9588 75.1607L38.7923 75.9617L38.4737 75.6273C38.1244 76.8082 37.8114 81.5157 39.3536 90.8984L39.8265 95.9041C39.9916 96.9083 40.0169 98.9449 38.7976 99.0569C38.3367 99.3905 37.4362 100.187 37.5211 100.703C36.3112 103.024 32.5065 103.811 30.7554 103.915C28.5666 102.028 23.3778 97.0825 20.1328 92.3999C19.1779 91.022 18.1938 88.9542 17.2452 86.5756C17.043 86.0689 16.8425 85.548 16.6443 85.0167C15.0957 80.8671 13.6831 76.0805 12.7039 72.4035C12.4907 71.6028 12.2981 70.8547 12.129 70.1773C12.0548 69.8799 11.9852 69.5962 11.9203 69.3275L9.87664 59.1652L6.47763 42.2637L2.87823 22.4114L1.74976 16.1874C1.81169 15.2195 2.2737 12.7861 3.62627 10.7957C4.97884 8.80525 6.42638 9.23039 6.98108 9.69176C8.97627 8.9218 10.9431 9.5931 11.6772 10.025C11.887 9.73266 12.6683 9.33165 14.1151 10.0663C15.562 10.801 18.4805 11.3011 19.7589 11.4594C20.0218 11.4898 20.4252 11.7477 19.9358 12.5354C21.0141 12.2766 22.9435 11.9411 25.0154 11.84C25.3427 11.824 25.6735 11.8139 26.0051 11.8109C27.3685 11.7983 28.7448 11.9054 29.9397 12.2173L33.5274 11.1856C34.8785 10.8898 37.4815 9.82842 37.0842 7.94879L38.0991 7.33995C38.0765 7.16254 38.0482 7.01883 38.0187 6.91114L39.0947 6.73429C39.1277 6.87806 39.157 7.02062 39.1829 7.16183L39.9732 6.70041L40.7558 9.44498Z" fill="white"/>
<path d="M40.0584 12.8211L40.9267 9.36319L40.1441 6.61862L39.3538 7.08006M40.0584 12.8211L39.5808 13.9494M40.0584 12.8211L40.4888 12.7504M50.7165 24.5513L40.9192 12.6796L40.4888 12.7504M50.7165 24.5513C51.7105 23.6512 54.26 22.4439 56.5063 24.8153C58.1748 26.8986 61.3101 31.4519 60.5035 32.9989C60.3832 33.2296 60.1863 33.5246 59.9317 33.8664M50.7165 24.5513L51.8072 25.8086M39.1032 15.0777C38.8807 15.7405 37.9161 16.8642 35.8384 16.0564C33.7607 15.2486 31.0676 14.3725 29.9808 14.0354C29.3721 13.6935 28.5458 12.8347 30.1106 12.1355M39.1032 15.0777L44.1927 23.8554C46.378 27.2903 51.016 34.8456 52.0855 37.5872M39.1032 15.0777L39.5808 13.9494M30.1106 12.1355L33.6983 11.1038C35.0494 10.808 37.6524 9.74664 37.2551 7.86702L38.27 7.25818M30.1106 12.1355C28.9157 11.8236 27.5394 11.7165 26.176 11.7291M30.7901 12.9078C32.2227 13.5564 35.6258 14.8978 37.7767 15.0748M52.0855 37.5872L53.1329 38.9174M52.0855 37.5872C51.3975 37.4354 50.1253 37.4947 50.5407 38.9462C50.9561 40.3976 51.459 41.3954 51.6585 41.7129M54.1803 40.2476C53.9049 40.5286 53.6496 40.7866 53.4223 41.0142L52.1473 41.9973M54.1803 40.2476C55.9919 38.3994 58.6705 35.5594 59.9317 33.8664M54.1803 40.2476L53.6566 39.5825M51.8072 25.8086C52.2664 25.2411 53.7454 24.1544 54.8377 25.4211C55.7987 26.5454 58.1629 29.8085 59.9317 33.8664M51.8072 25.8086C53.1848 27.0188 55.9926 30.0273 56.2024 32.3797C56.6888 33.4338 56.8605 36.35 53.6566 39.5825M39.5808 13.9494L42.6068 19.5853L48.2711 27.8264C50.005 30.5321 53.4049 36.5383 53.1329 38.9174M53.1329 38.9174C56.2314 35.9853 55.0622 32.39 54.0902 30.9588C52.2311 28.6122 48.0943 23.5236 46.4199 21.9423C44.7455 20.3609 41.7682 15.1555 40.4888 12.7504M53.1329 38.9174L53.6566 39.5825M11.9821 14.1205C12.158 12.9496 12.3775 10.475 11.848 9.94322M11.9821 14.1205C12.1027 14.0283 12.2805 13.9595 12.5072 13.9537M11.9821 14.1205L12.1162 16.9716M11.848 9.94322C12.0579 9.65089 12.8392 9.24988 14.286 9.98455C15.7328 10.7192 18.6514 11.2193 19.9298 11.3776C20.1927 11.4081 20.5961 11.6659 20.1067 12.4536M11.848 9.94322C11.114 9.51133 9.14715 8.84002 7.15196 9.60997M20.1067 12.4536C19.6173 13.2413 19.6639 18.0517 19.7483 20.3585C19.849 20.7472 19.9142 21.5026 19.3695 21.4154M20.1067 12.4536C21.185 12.1948 23.1144 11.8594 25.1862 11.7582M19.3695 21.4154L15.7406 16.8179C14.3611 14.5105 13.2034 13.9357 12.5072 13.9537M19.3695 21.4154L22.9983 26.0128C23.195 26.1949 23.4195 26.4995 23.587 26.9106M25.1862 11.7582C24.3416 11.9979 22.8742 12.6176 23.7621 13.1789C23.7746 12.8063 24.2748 11.9948 26.176 11.7291M25.1862 11.7582C25.5135 11.7423 25.8444 11.7321 26.176 11.7291M12.5072 13.9537L13.4587 27.1387L14.0894 33.6655C14.1714 34.3887 14.4292 35.5987 14.8042 34.653C15.1792 33.7073 15.3319 33.8296 15.3614 34.0089L15.6974 36.0533C15.7264 36.4538 15.9601 37.2479 16.6628 37.2208C17.3656 37.1937 18.349 39.4116 18.7529 40.524C18.9371 40.9726 19.1181 42.3426 18.3681 44.234M7.15196 9.60997C6.59726 9.14861 5.14973 8.72346 3.79715 10.7139C2.44458 12.7043 1.98258 15.1377 1.92065 16.1057L3.04911 22.3296M7.15196 9.60997C6.10274 10.0149 5.93033 13.077 6.12442 16.6303M23.587 26.9106C23.9376 27.771 24.0387 29.0981 23.1131 30.7457L20.1597 40.7348M23.587 26.9106L25.5081 28.5084M40.634 43.8896C40.2861 45.5381 39.2213 50.3103 38.7323 52.4903C38.5938 52.9919 38.474 54.1461 39.1037 54.7499C39.7334 55.3536 40.6887 56.7732 41.0876 57.4075M40.634 43.8896C40.7285 43.4417 40.6805 42.9638 40.5437 42.4889M40.634 43.8896C41.3793 44.6144 42.8228 46.3147 42.6341 47.3181M41.0876 57.4075L41.8645 54.7381M41.0876 57.4075L39.9571 57.9248C39.6696 58.1931 38.6821 58.908 39.3615 59.6803C39.7268 60.0955 40.3453 60.1298 40.8589 60.0499M41.0876 57.4075C41.4704 57.2709 42.2146 56.8686 42.1298 56.3521M41.8645 54.7381C40.644 55.3807 39.6963 54.321 40.846 53.248C41.2653 52.8566 41.7301 52.5374 42.1549 52.2919M41.8645 54.7381C42.053 54.6519 42.2212 54.5581 42.3711 54.4585M40.5437 42.4889C41.6119 43.6692 43.6762 46.2628 43.3873 47.1943M40.5437 42.4889C40.4751 42.2509 40.3842 42.0137 40.2779 41.7814M40.5437 42.4889C41.2301 42.4943 42.8 42.6119 43.5884 43.0393C44.3182 43.4349 44.9003 43.761 45.7676 43.8195M43.3873 47.1943L42.6341 47.3181M43.3873 47.1943C43.9346 47.1044 44.7464 46.9568 45.4825 46.7944M42.6341 47.3181C41.6011 47.4879 41.5506 48.675 41.6545 49.2473C41.8416 49.54 42.1945 49.7987 42.7131 49.8159M32.6845 34.477L38.5646 39.3674C38.943 39.7393 39.475 40.3645 39.9112 41.0905M32.6845 34.477C32.3315 33.6878 31.9664 31.8986 33.3307 31.0555C34.6951 30.2125 37.3483 32.8632 38.5043 34.294L43.838 41.1963C43.9571 41.3984 44.1113 41.631 44.2944 41.8724M32.6845 34.477L31.4641 33.462M49.2582 43.2457L48.0024 43.6732C47.5994 43.8419 47.1951 43.8598 46.8033 43.7737M49.2582 43.2457L48.166 42.6517M49.2582 43.2457L49.8043 43.5427M31.4641 33.462C31.2437 32.6878 31.212 30.9396 32.8488 30.1402C34.4855 29.3407 36.7548 31.0453 37.6849 31.9975L43.4774 39.002L45.7296 41.9471C46.099 42.402 47.1036 43.1799 48.166 42.6517M31.4641 33.462L27.3591 30.0479M48.166 42.6517L46.3943 41.2853C46.2258 39.7217 47.5526 39.5916 48.2371 39.7221L51.6585 41.7129M52.1473 41.9973L50.3504 43.8398L49.8043 43.5427M52.1473 41.9973L51.6585 41.7129M39.9112 41.0905C40.5661 40.9012 42.3597 40.7927 44.2944 41.8724M39.9112 41.0905C40.0448 41.3128 40.1694 41.5446 40.2779 41.7814M44.2944 41.8724C44.4355 42.0586 44.5939 42.2501 44.7664 42.4369M40.2779 41.7814C40.4924 41.4738 41.6905 41.1743 44.7664 42.4369M44.7664 42.4369C45.329 43.0463 46.0423 43.6064 46.8033 43.7737M46.8033 43.7737C46.4106 43.8275 46.0716 43.8399 45.7676 43.8195M47.2079 46.2349C47.4237 45.9342 49.0288 44.3148 49.8043 43.5427M47.2079 46.2349C47.0918 46.3966 46.3384 46.6055 45.4825 46.7944M47.2079 46.2349C45.8062 48.1759 44.6625 49.1513 43.7768 49.5642M45.7676 43.8195C46.0192 44.3304 46.3145 45.6407 45.4825 46.7944M43.7768 49.5642L43.3592 51.7298M43.7768 49.5642C43.367 49.7552 43.0124 49.8258 42.7131 49.8159M43.3592 51.7298C43.1119 51.8105 42.6619 51.9988 42.1549 52.2919M43.3592 51.7298C43.588 52.3191 43.659 53.6024 42.3711 54.4585M42.7131 49.8159L42.1549 52.2919M42.3711 54.4585C44.7349 57.007 42.7715 59.1363 41.4944 59.8823C41.3354 59.9447 41.1097 60.0109 40.8589 60.0499M21.9894 52.1479C21.8764 52.4973 21.8571 53.2209 22.3021 54.0501M21.9894 52.1479L36.6097 53.9442M21.9894 52.1479L22.2143 50.3428M36.7116 50.2807C36.8361 50.7902 36.8584 51.4557 36.809 52.218M36.7116 50.2807L22.4251 48.6505M36.7116 50.2807C36.5867 49.7697 36.4657 49.311 36.3514 48.9033M35.5369 46.4955L34.6327 45.3733M35.5369 46.4955L33.1855 64.4622M35.5369 46.4955C35.6649 46.7576 35.9712 47.5479 36.3514 48.9033M35.5369 46.4955L22.83 45.4003M25.888 34.8541C26.1704 35.0286 26.4376 35.2531 26.652 35.4685L26.9272 35.81M25.888 34.8541L23.6913 55.6254M25.888 34.8541C25.5594 34.651 25.2102 34.5155 24.8996 34.5409M23.6913 55.6254C23.5853 55.5307 23.4891 55.4464 23.4037 55.3738C23.0939 55.1102 22.8447 54.8437 22.6454 54.5817M23.6913 55.6254C23.9918 55.8938 24.3707 56.2464 24.8039 56.6581M23.6913 55.6254L35.9214 57.3725M27.2024 36.1515L24.8039 56.6581M27.2024 36.1515L28.0403 37.1914M27.2024 36.1515L26.9272 35.81M24.8039 56.6581C25.1635 56.9998 25.5604 57.3821 25.9808 57.7908M28.4605 37.7129L25.9808 57.7908M28.4605 37.7129L29.6399 39.1767M28.4605 37.7129L28.0403 37.1914M25.9808 57.7908C26.3224 58.1229 26.6795 58.4723 27.0447 58.8315M25.9808 57.7908L35.6081 58.6752M29.6399 39.1767L27.0447 58.8315M29.6399 39.1767L30.5392 40.2928M29.6399 39.1767L23.6337 38.9482M27.0447 58.8315C27.2977 59.0803 27.5546 59.3338 27.8129 59.5893M30.5392 40.2928L28.1 59.8736M30.5392 40.2928L31.0945 40.982M28.1 59.8736C28.4187 60.1896 28.7382 60.5073 29.0538 60.822M28.1 59.8736C28.0042 59.7786 27.9085 59.6838 27.8129 59.5893M31.6498 41.6712L29.0538 60.822M31.6498 41.6712L32.7372 43.0208M31.6498 41.6712L31.0945 40.982M29.0538 60.822C29.2134 60.9811 29.372 61.1394 29.5291 61.2964M32.7372 43.0208L30.0033 61.7709M32.7372 43.0208L33.7285 44.2511M32.7372 43.0208L23.2121 42.3328M30.0033 61.7709C30.4104 62.1789 30.8021 62.5726 31.1673 62.9405M30.0033 61.7709C29.8473 61.6146 29.689 61.4562 29.5291 61.2964M33.7285 44.2511L31.1673 62.9405M33.7285 44.2511L34.1806 44.8122M31.1673 62.9405C31.3193 63.0936 31.4667 63.2424 31.6086 63.3858M34.6327 45.3733L32.0786 63.861M34.6327 45.3733L34.1806 44.8122M32.0786 63.861C32.1762 63.9599 32.2701 64.0551 32.36 64.1463C32.5712 64.2979 32.8709 64.4387 33.1855 64.4622M32.0786 63.861C31.93 63.7106 31.773 63.5517 31.6086 63.3858M33.1855 64.4622C33.617 64.4945 34.0765 64.3061 34.3734 63.6217M24.8996 34.5409L22.6454 54.5817M24.8996 34.5409C24.4556 34.5772 24.0906 34.9421 23.9778 35.908M22.6454 54.5817C22.5084 54.4016 22.3951 54.2235 22.3021 54.0501M31.6086 63.3858L34.3734 63.6217M34.3734 63.6217C34.4594 63.4237 34.5317 63.1841 34.5858 62.8964C34.6343 62.6385 34.7024 62.3295 34.7848 61.9796M29.5291 61.2964L34.7848 61.9796M34.7848 61.9796C34.896 61.508 35.0333 60.9621 35.1836 60.367M27.8129 59.5893L35.1836 60.367M35.1836 60.367C35.3177 59.8363 35.4623 59.2664 35.6081 58.6752M35.6081 58.6752C35.713 58.2498 35.8186 57.8134 35.9214 57.3725M35.9214 57.3725C36.0702 56.7342 36.2133 56.0865 36.3402 55.4497M22.3021 54.0501L36.3402 55.4497M36.3402 55.4497C36.4423 54.9374 36.534 54.4321 36.6097 53.9442M36.6097 53.9442C36.7044 53.3348 36.7743 52.7526 36.809 52.218M22.2143 50.3428L36.809 52.218M22.2143 50.3428L22.4251 48.6505M22.4251 48.6505L22.5867 47.3531M22.5867 47.3531L36.3514 48.9033M22.5867 47.3531L22.83 45.4003M22.83 45.4003L23.021 43.8665M23.021 43.8665L34.1806 44.8122M23.021 43.8665L23.2121 42.3328M23.2121 42.3328L23.4664 40.291M23.4664 40.291L31.0945 40.982M23.4664 40.291L23.6337 38.9482M23.6337 38.9482L23.8585 37.1432M23.8585 37.1432L23.9428 36.4663C23.9463 36.2611 23.9583 36.0755 23.9778 35.908M23.8585 37.1432L28.0403 37.1914M23.9778 35.908L26.9272 35.81M20.1597 40.7348L19.988 41.3156L17.0074 51.4196L16.0522 53.6762C15.9736 54.0943 15.587 54.8799 14.6696 54.677L11.6966 53.3975L13.3134 59.8728M20.1597 40.7348C20.4459 41.0008 20.965 42.1496 20.7515 44.6158C20.538 47.0821 19.6787 52.6566 19.2758 55.1356C18.7829 56.3953 18.3441 59.6869 20.5314 62.7752C21.7162 64.448 22.5136 65.7501 23.0212 66.6758M28.1319 94.8993L27.9727 93.9309L26.0316 88.172C25.56 85.3026 24.6726 78.6928 24.8955 75.2083C25.1185 71.7238 24.2221 69.0938 23.746 68.2143C23.6726 67.9731 23.4507 67.4592 23.0212 66.6758M28.1319 94.8993C26.9361 95.2755 24.6391 95.4383 23.4015 93.7981M28.1319 94.8993C29.4108 94.8364 32.2472 95.1953 33.3615 97.1339C34.4758 99.0725 36.7128 100.267 37.692 100.621M13.3134 59.8728C14.1716 61.7324 16.2477 66.0266 17.6865 68.3261C19.1253 70.6256 18.8401 72.6557 18.5177 73.3834C18.2784 73.4964 17.8054 74.4287 17.8278 77.254C17.8501 80.0793 20.1698 82.7628 21.3268 83.7514C21.8687 84.5832 22.898 86.5874 22.6798 87.9493C22.4616 89.3113 22.6301 91.4569 22.7416 92.3595C22.8879 92.9475 23.1166 93.4206 23.4015 93.7981M13.3134 59.8728L19.7309 67.9901L21.4274 70.916C21.7546 71.5621 22.1681 73.137 21.2047 74.2678C20.2413 75.3987 19.7223 77.1268 19.5832 77.8496C19.7007 78.788 20.2898 80.9381 21.7071 82.0313C23.1245 83.1244 23.6055 85.5134 23.6689 86.5712L23.4015 93.7981M37.692 100.621C36.4821 102.942 32.6774 103.729 30.9263 103.833C28.7375 101.946 23.5487 97.0008 20.3037 92.3181C19.3488 90.9402 18.3647 88.8724 17.416 86.4938M37.692 100.621C37.6071 100.105 38.5076 99.3087 38.9685 98.9751C40.1877 98.8631 40.1624 96.8265 39.9974 95.8223M12.2999 70.0955C12.2257 69.7982 12.1561 69.5144 12.0912 69.2457L10.0475 59.0834M12.2999 70.0955C12.7738 69.9808 13.7819 69.9845 14.0236 70.9173C14.2653 71.85 13.3585 72.2422 12.8748 72.3217M12.2999 70.0955C12.469 70.773 12.6616 71.521 12.8748 72.3217M12.8748 72.3217C13.854 75.9988 15.2666 80.7853 16.8152 84.935M16.8152 84.935C17.0996 84.7409 17.7362 84.4963 18.0074 85.0705C18.2786 85.6448 17.7262 86.2587 17.416 86.4938M16.8152 84.935C17.0134 85.4662 17.2139 85.9871 17.416 86.4938M3.04911 22.3296L6.64851 42.1819L10.0475 59.0834M3.04911 22.3296L4.32453 23.3356L3.73048 24.4278L4.57212 24.842L4.19328 25.8988L4.87276 26.6712L4.54698 28.0508L5.24415 28.9308L4.86531 29.9877L5.54479 30.76L5.20133 32.0321L5.93386 33.1273L5.87634 34.7943L6.94937 35.944L6.33615 37.5919L6.97728 39.4757L7.52551 42.8113L8.15195 43.2609L7.64484 45.5544L9.02299 46.5435L8.55124 49.0522L9.92939 50.0412L9.76227 53.384L10.2609 54.0755L10.0983 55.4284L10.9905 56.4973L10.8144 57.4429L11.2911 58.3265L10.0475 59.0834M25.5081 28.5084L27.5546 16.7549L27.3591 30.0479M25.5081 28.5084L27.3591 30.0479M6.12442 16.6303C6.29942 19.834 6.77235 23.4369 7.16924 25.8517L11.2191 50.4923L11.9738 49.7052C12.5049 50.0231 13.6612 50.2898 14.0374 48.8135C14.4136 47.3372 13.4741 38.8868 12.9573 34.8461L12.1162 16.9716M6.12442 16.6303C6.76121 18.1096 8.85108 20.2488 12.1162 16.9716M23.0212 66.6758C25.1155 67.3052 28.6971 68.7217 31.7738 70.7353M38.3259 75.2111L37.1193 76.1829L36.6549 75.4857C35.6408 73.6757 33.8188 72.0736 31.7738 70.7353M38.3259 75.2111C38.2552 74.7807 37.8237 73.4371 36.6639 71.506C35.504 69.5749 35.4938 67.7937 35.6337 67.1445L37.2382 60.9134L40.1604 63.1958M38.3259 75.2111L38.6446 75.5455M39.0067 71.6735C38.7031 72.3422 38.9622 74.2224 39.1297 75.079L38.9632 75.8799L38.6446 75.5455M39.0067 71.6735L37.6362 71.0147C37.1524 70.4311 36.5758 69.2219 38.1394 69.0533L39.1697 69.5198M39.0067 71.6735C39.99 71.5119 40.0321 70.3998 39.9302 69.864L39.1697 69.5198M40.1604 63.1958L38.7601 64.089C38.3908 64.2602 37.8121 64.7973 38.4519 65.5762C38.8042 66.0051 39.3278 65.9814 39.8145 65.7978M40.1604 63.1958L40.5096 61.6229M40.8589 60.0499L40.5096 61.6229M40.5096 61.6229C42.908 63.3757 41.7153 64.7294 40.8192 65.1871C40.5843 65.3913 40.2117 65.6478 39.8145 65.7978M39.8145 65.7978L39.1697 69.5198M38.6446 75.5455C38.2953 76.7264 37.9823 81.4339 39.5244 90.8167L39.9974 95.8223M39.9974 95.8223C35.6463 93.5537 33.8474 83.3512 32.9567 79.7403C32.2442 76.8516 30.9893 76.0854 30.4509 76.0634C29.5607 76.0255 27.7816 75.2865 27.7875 72.6334C27.7935 69.9802 30.4476 70.2625 31.7738 70.7353M37.5674 12.457L38.7864 12.4777C39.2065 11.6719 39.8905 9.37878 39.2656 6.65249L38.1896 6.82934C38.3733 7.49902 38.5061 9.56212 37.5674 12.457Z" stroke="#007C6D" stroke-width="0.6"/>
</svg>
