<svg width="570" height="395" viewBox="0 0 570 395" fill="none" xmlns="http://www.w3.org/2000/svg">
<path d="M391.995 54.2585C393.017 54.4221 396.086 56.0174 400.19 61.0891C402.295 63.1375 407.333 67.1645 410.646 66.8851C412.452 66.7328 414.216 67.8187 415.637 69.159C416.47 69.9443 417.185 70.8169 417.722 71.5791C423.541 71.3594 437.001 69.2282 444.287 62.461C444.508 62.2558 444.732 62.0498 444.959 61.8432C447.163 59.8361 449.64 57.7674 452.14 55.7786C457.873 51.2187 463.733 47.0793 466.735 45.0687L472.508 40.5271L475.15 38.4488L483.428 31.9373L485.915 29.9815C486.385 29.4408 486.952 28.7783 487.561 28.0533C490.002 25.1483 493.115 21.2397 493.358 20.1385C493.715 18.5275 496.613 12.331 499.835 11.8077C500.054 11.7722 500.274 11.7628 500.494 11.7827C500.708 11.8566 500.987 11.9401 501.306 12.018C501.618 12.0941 501.969 12.1651 502.334 12.217C503.237 12.3455 504.231 12.3576 504.957 12.0437C505.854 11.9329 507.299 11.8974 508.732 12.1485C509.284 12.2452 509.834 12.3845 510.35 12.5783C511.191 12.8944 511.942 13.3557 512.464 14.0146C513.035 14.2364 513.922 14.8832 514.302 16.0331C514.499 16.6278 514.561 17.3571 514.373 18.2317C514.762 18.2618 515.203 18.3405 515.63 18.4817C516.327 18.7127 516.987 19.1109 517.317 19.7369C517.656 20.3782 517.65 21.2586 516.988 22.4432C516.836 22.7157 516.649 23.0042 516.423 23.3096C516.099 24.0259 515.747 25.6529 516.936 26.43C517.136 26.7586 517.34 27.1879 517.495 27.6753C517.651 28.1654 517.756 28.7142 517.759 29.2785C517.761 29.8565 517.654 30.4507 517.381 31.0146C517.051 31.6963 516.478 32.3337 515.559 32.8447C512.266 33.2018 505.161 34.7969 503.088 38.3202L486.682 55.4931L472.182 70.1426L464.48 77.0696L456.778 83.9966L450.231 89.8846C447.728 92.1377 441.816 97.9865 438.19 103.356C433.71 107.703 423.992 117.691 420.954 122.876C421.084 123.665 421.752 125.176 423.388 124.907C423.052 125.331 422.001 126.019 420.482 125.385C419.691 126.62 418.738 129.296 421.26 130.119C420.279 130.649 418.088 131.392 417.173 130.128C417.092 131.651 417.267 134.732 418.615 134.864C417.616 135.065 415.441 135.054 414.728 133.403C414.467 135.177 414.436 138.888 416.399 139.538C415.502 139.685 413.559 139.739 412.959 138.777C412.87 140.928 413.145 145.156 414.953 144.859C413.614 145.226 410.871 145.574 410.617 144.024C410.475 145.631 410.641 148.882 412.434 149.03C411.476 149.703 409.087 149.912 407.189 145.361C406.532 148.084 406.149 153.688 409.876 154.313C409.011 155.101 406.715 155.786 404.449 152.221C404.585 154.165 405.372 157.968 407.438 157.629C406.401 158.266 403.691 159.038 401.149 157.021C400.304 157.531 399.358 157.866 398.503 157.729L401.412 158.619L406.61 160.21C406.785 160.252 406.953 160.303 407.114 160.364L410.721 161.467L417.8 162.182L419.486 162.353L424.88 162.897C427.928 162.617 436.06 162.607 444.201 164.805C446.126 164.415 450.161 163.958 450.904 165.251C451.386 166.089 452.056 165.17 453.224 164.574C454.307 164.023 455.817 163.75 458.003 165.41C460.838 164.281 466.521 162.64 466.573 165.106C468.366 164.521 471.237 164.355 471.305 167.091C471.323 167.823 471.141 168.762 470.685 169.956C472.81 170.785 476.615 173.357 474.828 177.011C475.166 178.171 474.952 180.858 471.392 182.327C472.046 184.061 471.653 187.412 464.856 186.938C464.409 189.147 462.387 192.758 457.877 189.521C457.245 188.321 454.695 186.102 449.116 184.625C447.129 184.099 444.759 183.667 441.954 183.408C434.829 182.751 427.047 182.855 421.245 183.141C419.929 183.205 418.715 183.28 417.634 183.356C416.334 183.449 415.227 183.545 414.364 183.633C407.939 184.336 395.467 185.078 385.472 184.006C383.28 183.771 381.207 183.448 379.343 183.019C378.169 182.749 377.079 182.437 376.094 182.077C374.214 181.816 369.942 180.576 366.107 177.64C363.683 180.097 360.516 182.656 356.801 185.248C354.22 187.048 351.376 188.864 348.332 190.671C344.664 192.849 340.706 195.016 336.574 197.128C332.41 199.258 328.068 201.333 323.667 203.311C303.607 212.324 282.306 219.319 270.867 220.258C269.588 220.363 268.325 220.527 267.079 220.743C264.897 221.123 262.768 221.662 260.708 222.325C248.134 226.37 238.12 234.998 234.055 239.679C231.075 244.405 224.742 254.957 223.255 259.357C222.628 261.21 221.46 262.508 220.161 263.396C211.849 279.521 186.64 294.769 175.754 299.803C177.309 302.04 178.941 304.915 178.333 306.081C178.212 306.311 178.015 306.607 177.761 306.948C176.5 308.641 173.821 311.481 172.009 313.329C171.734 313.61 171.479 313.868 171.251 314.096L169.976 315.079L168.18 316.922L167.633 316.625C166.858 317.397 165.253 319.016 165.037 319.317C163.635 321.258 162.492 322.233 161.606 322.646L161.188 324.812C161.417 325.401 161.488 326.684 160.2 327.54C162.564 330.089 160.601 332.218 159.323 332.964C159.165 333.027 158.939 333.093 158.688 333.132L158.339 334.705C160.737 336.458 159.544 337.811 158.648 338.269C158.413 338.473 158.041 338.73 157.644 338.88L156.999 342.602L157.759 342.946C157.861 343.482 157.819 344.594 156.836 344.755C156.532 345.424 156.791 347.304 156.959 348.161L156.792 348.962L156.474 348.627C156.124 349.808 155.811 354.516 157.354 363.899L157.827 368.904C157.992 369.908 158.017 371.945 156.798 372.057C156.337 372.391 155.436 373.187 155.521 373.703C154.311 376.024 150.507 376.811 148.755 376.915C146.567 375.028 141.378 370.083 138.133 365.4C137.178 364.022 136.194 361.954 135.245 359.576C135.043 359.069 134.843 358.548 134.644 358.017C133.096 353.867 131.683 349.081 130.704 345.404C130.491 344.603 130.298 343.855 130.129 343.177C130.055 342.88 129.985 342.596 129.92 342.328L127.877 332.165L124.478 315.264L120.878 295.411L119.75 289.188C119.812 288.22 120.274 285.786 121.626 283.796C122.979 281.805 124.426 282.23 124.981 282.692C126.976 281.922 128.943 282.593 129.677 283.025C129.887 282.733 130.668 282.332 132.115 283.066C133.562 283.801 136.481 284.301 137.759 284.459C138.022 284.49 138.425 284.748 137.936 285.535C139.014 285.277 140.944 284.941 143.015 284.84C143.343 284.824 143.674 284.814 144.005 284.811C145.369 284.798 146.745 284.905 147.94 285.217L151.527 284.186C152.879 283.89 155.482 282.829 155.084 280.949L156.099 280.34C156.076 280.163 156.048 280.019 156.019 279.911L157.095 279.734C157.128 279.878 157.157 280.021 157.183 280.162L157.973 279.7L158.756 282.445L161.021 278.316C165.478 271.748 167.191 261.763 167.49 257.591C157.534 260.138 142.547 263.364 138.365 261.927C133.493 260.252 127.916 263.792 125.736 265.771C124.227 271.927 119.105 276.262 115.703 278.581C113.213 282.173 110.383 282.328 109.279 281.957C109.277 282.621 109.067 283.893 108.235 283.676C107.823 283.744 107.266 284.793 107.039 285.309C107.033 285.421 107.024 285.533 107.012 285.645C106.89 286.476 106.501 287.917 105.915 287.041C105.311 287.14 105.374 288.014 105.482 288.438C105.909 289.96 105.25 290.613 104.867 290.75C104.466 290.462 103.945 291.417 103.735 291.93C104.074 293.996 103.514 294.619 103.191 294.672C103.049 294.931 102.75 295.753 102.684 296.965C102.71 297.413 102.712 298.056 102.621 298.412C102.609 298.46 102.595 298.502 102.579 298.539C102.484 298.796 102.254 299.283 101.835 299.868C101.331 300.569 101.598 301.343 101.795 301.642C102.033 302.192 102.17 303.658 100.819 305.118C100.239 305.397 99.1885 306.358 99.6295 307.965C100.07 309.573 99.6137 312.352 99.3301 313.54C101.113 317.933 99.01 320.628 97.7357 321.427C97.9433 321.982 97.2949 323.732 93.0404 326.288C88.7859 328.843 86.0242 327.33 85.1752 326.254C79.507 321.351 72.2837 308.555 69.3806 302.77C65.0315 297.824 62.3883 287.121 61.6104 282.388L62.2059 280.633L56.7939 263.841C55.8306 258.518 59.0438 257.135 60.7708 257.109C62.7607 255.769 65.1902 256.432 66.1562 256.93C66.3342 256.56 66.5252 256.296 66.6889 256.137C67.4535 255.835 68.9534 255.512 70.7029 255.682C71.7803 255.289 74.2177 254.745 75.3485 255.708C75.8017 255.537 78.5479 254.308 81.6308 252.917C82.2062 252.658 82.7934 252.392 83.3795 252.127C85.422 251.203 87.4525 250.281 88.9328 249.608C90.1896 248.984 92.2629 248.094 94.4318 247.43C95.4117 246.22 97.9837 244.296 100.432 246.281L114.081 235.197L120.537 234.136L119.688 228.971L123.119 233.711L122.27 228.547L124.776 230.345L125.783 229.074L126.294 224.791L132.105 223.836L135.265 221.549L139.569 220.841L144.519 220.028L149.468 219.214C149.648 217.965 149.998 216.402 150.551 214.616C151.162 212.643 152.021 210.396 153.173 207.997C153.626 207.052 154.124 206.083 154.671 205.098C158.462 198.267 164.559 190.65 173.855 184.706C168.305 181.419 151.218 174.458 127.272 172.913C123.197 171.277 116.228 168.972 108.514 167.351C107.367 167.109 106.203 166.883 105.029 166.677C100.355 165.854 95.5331 165.342 91.0094 165.422C89.5899 165.448 88.1997 165.531 86.8528 165.682C86.2307 165.751 85.6179 165.835 85.0157 165.934C75.3213 167.527 56.1067 166.239 40.0354 164.567C32.7033 163.804 26.0254 162.962 21.2044 162.277C15.9708 161.811 7.79479 159.221 16.9596 152.587C21.8659 149.036 31.8292 147.529 41.9099 147.061C45.5754 146.891 49.2565 146.858 52.7155 146.914C56.7895 146.98 60.5556 147.17 63.6258 147.404C64.1712 147.446 64.6947 147.489 65.194 147.532L80.6048 149.183L82.2922 149.364C84.7682 149.128 88.0732 148.901 91.8081 148.766C94.9979 148.651 98.5014 148.602 102.07 148.672C107.602 148.781 113.291 149.175 118.209 150.048C120.769 150.502 123.12 151.086 125.132 151.826C126.995 152.512 128.933 153.167 130.896 153.787C134.781 155.014 138.763 156.104 142.452 157.027C148.199 158.464 153.236 159.494 156.091 159.999L152.082 157.121L145.272 156.03L138.433 152.071L124.495 147.953L35.8125 123.409L51.9615 116.776L65.2128 107.305L116.791 82.2513C120.31 79.9048 134.276 74.6035 161.989 72.1704L185.661 68.2797C198.189 66.9574 227.861 64.9684 246.327 67.5914C264.793 70.2144 277.528 74.5454 281.588 76.3831C289.566 78.7554 305.827 83.4721 307.046 83.3601C308.57 83.2201 309.286 83.5444 311.503 86.2742C313.222 87.0968 317.545 89.4143 321.081 92.1041L324.847 91.4851C325.534 91.6301 327.461 91.387 329.674 89.2551C331.888 87.1231 336.661 86.265 338.77 86.1025C338.6 79.7653 340.838 73.1648 341.978 70.6567C343.438 67.2121 347.737 59.1678 353.255 54.5479C354.942 50.6974 358.175 41.0529 357.605 33.2785C358.063 31.5825 359.528 27.9012 361.725 26.7445C364.471 25.2986 366.465 23.3132 369.607 28.9851C372.121 33.5227 372.817 41.7921 372.851 45.3596C373.389 47.0614 376.092 50.688 382.604 51.5805C383.288 51.6729 383.971 51.7886 384.65 51.9294L388.323 53.0939L391.995 54.2585Z" fill="white"/>
<path d="M366.088 83.769C361.982 81.4233 354.736 74.5399 358.599 65.7716C359.146 64.7648 359.932 63.4857 360.88 62.1684M376.4 65.8295C374.848 65.2521 374.143 61.8501 373.886 59.1704M364.597 57.8936C366.4 56.2521 368.365 55.1108 370.239 55.2388C371.267 54.9961 373.412 55.0488 373.766 57.2008C373.778 57.7541 373.815 58.435 373.886 59.1704M364.597 57.8936C360.537 62.7738 355.385 74.19 367.259 80.8138M364.597 57.8936C363.227 59.1419 361.95 60.6795 360.88 62.1684M360.88 62.1684C349.553 65.8676 345.567 77.254 344.991 82.4848C344.574 79.0538 345.936 70.2177 354.716 62.321C351.706 64.3997 345.032 70.3663 342.42 77.6029C343.44 73.0517 348.057 62.8186 358.365 58.2956C358.431 57.8057 357.255 57.3286 352.016 59.339C357.213 55.9005 370.279 49.8112 382.775 51.4987M418.477 72.3957C419.193 75.8512 419.581 83.8176 415.413 88.039C411.244 92.2604 407.19 93.3687 405.684 93.3952C402.844 94.2672 398.03 96.5761 401.495 98.8355C402.753 99.9917 405.708 102.011 407.46 100.839C406.968 101.656 405.584 103.136 403.979 102.516C404.694 103.283 406.397 104.727 407.488 104.37C405.897 105 402.534 105.826 401.806 104.089C402.299 105.297 403.587 107.664 404.792 107.466C403.202 107.653 399.837 107.573 399.095 105.75C397.945 107.353 394.174 110.336 386.962 112.611M418.477 72.3957C418.27 75.4356 414.886 75.1962 413.22 74.6965C415.546 73.2533 415.915 70.349 415.808 69.0773M418.477 72.3957C418.318 72.1264 418.122 71.8219 417.893 71.4973M382.775 113.748C375.575 114.047 363.018 98.7132 360.953 94.8901C360.815 98.0808 358.599 101.601 364.446 106.649C363.731 108.398 362.772 109.553 350.489 108.545C353.178 111.455 362.123 116.799 376.397 114.895C380.525 114.345 384.028 113.536 386.962 112.611M373.886 59.1704C376.737 58.849 383.544 58.5996 387.958 60.1728C386.701 59.472 383.25 57.8849 379.503 57.142C381.557 56.6413 386.347 56.0188 389.071 57.5349C388.596 56.8842 385.835 55.4603 378.594 54.9708C381.554 54.6027 387.989 54.175 390.048 55.4089C392.622 56.9513 386.633 52.2129 379.764 52.6788C380.983 52.4784 384.437 52.2644 388.494 53.0121M388.494 53.0121L384.821 51.8476C384.142 51.7068 383.459 51.5911 382.775 51.4987M388.494 53.0121L392.166 54.1767C393.187 54.3403 396.256 55.9356 400.361 61.0073C402.466 63.0557 407.504 67.0827 410.817 66.8033C412.623 66.6511 414.387 67.7369 415.808 69.0773M382.775 51.4987C376.263 50.6062 373.56 46.9796 373.022 45.2778C372.988 41.7103 372.292 33.4409 369.778 28.9033C366.636 23.2314 364.642 25.2168 361.896 26.6627C359.699 27.8194 358.234 31.5007 357.776 33.1967C358.346 40.9711 355.113 50.6156 353.425 54.4661C347.908 59.086 343.609 67.1303 342.149 70.5749C341.009 73.083 338.771 79.6835 338.941 86.0207M415.808 69.0773C416.641 69.8625 417.356 70.7351 417.893 71.4973M398.716 70.4961C397.675 68.6468 396.15 67.8238 396.633 68.582C396.826 68.884 396.686 69.4569 396.34 70.1774M398.716 70.4961C399.436 70.8413 401.22 71.475 402.597 71.2486C403.051 71.3213 403.672 71.6024 402.523 72.1448C401.89 72.1015 400.54 72.1833 400.209 72.8566C399.98 73.1521 399.536 73.8513 399.586 74.2851M398.716 70.4961C399.276 71.4909 399.695 72.7827 399.586 74.2851M399.586 74.2851C399.573 74.4697 399.551 74.6575 399.521 74.8483M394.642 72.8876C395.02 73.7464 395.99 75.5612 396.85 75.9504C397.924 76.4369 396.962 71.7768 396.142 70.5634M394.642 72.8876C395.232 72.0701 395.764 71.2641 396.142 70.5634M394.642 72.8876C394.19 73.5133 393.703 74.1458 393.226 74.743M396.142 70.5634C396.214 70.4307 396.28 70.3018 396.34 70.1774M393.226 74.743C392.592 75.5347 391.974 76.2646 391.47 76.8346C393.54 77.8955 395.144 78.207 396.327 78.1489M393.226 74.743C393.651 75.7616 394.866 77.8689 396.327 78.1489M396.327 78.1489C397.682 78.0824 398.484 77.5313 398.801 77.0663C399.183 76.2915 399.411 75.5495 399.521 74.8483M396.34 70.1774C397.241 70.5818 399.139 72.0822 399.521 74.8483M417.893 71.4973C423.712 71.2776 437.172 69.1464 444.458 62.3793C444.679 62.1741 444.903 61.9681 445.13 61.7614M512.635 13.9328C512.113 13.2739 511.362 12.8126 510.52 12.4965M512.635 13.9328C513.206 14.1546 514.093 14.8014 514.473 15.9514C514.67 16.546 514.732 17.2753 514.544 18.1499C514.933 18.18 515.374 18.2588 515.801 18.4M512.635 13.9328C510.425 16.1747 505.794 20.3173 504.951 18.953C504.108 17.5886 507.234 13.7937 508.903 12.0667M445.13 61.7614C446.684 68.5234 451.222 82.421 456.949 83.9148M445.13 61.7614C447.334 59.7544 449.811 57.6856 452.311 55.6968M456.949 83.9148L450.402 89.8028C447.899 92.0559 441.987 97.9047 438.361 103.275C433.881 107.621 424.163 117.609 421.125 122.794C421.255 123.583 421.923 125.094 423.558 124.825C423.223 125.249 422.172 125.937 420.653 125.303C419.862 126.538 418.909 129.214 421.431 130.037C420.45 130.567 418.259 131.31 417.344 130.046C417.263 131.57 417.438 134.65 418.785 134.782C417.787 134.983 415.612 134.972 414.899 133.321C414.638 135.095 414.607 138.806 416.57 139.456C415.673 139.603 413.73 139.657 413.13 138.695C413.041 140.846 413.316 145.074 415.124 144.777C413.784 145.144 411.042 145.492 410.787 143.942C410.646 145.55 410.812 148.801 412.605 148.948C411.647 149.621 409.258 149.83 407.36 145.279C406.703 148.003 406.32 153.606 410.047 154.231C409.182 155.019 406.886 155.705 404.62 152.139C404.755 154.083 405.543 157.886 407.609 157.547C406.571 158.185 403.862 158.956 401.32 156.939M456.949 83.9148L464.651 76.9878M452.311 55.6968C458.044 51.1369 463.903 46.9975 466.906 44.9869L472.679 40.4453M452.311 55.6968C454.17 57.5937 458.053 62.9297 458.713 69.098C459.373 75.2663 462.947 76.928 464.651 76.9878M464.651 76.9878L472.353 70.0609L486.853 55.4114L503.259 38.2385C505.332 34.7151 512.437 33.1201 515.73 32.7629C516.649 32.2519 517.222 31.6145 517.552 30.9328M472.679 40.4453C474.33 44.8863 479.583 53.0009 487.389 49.9314C489.622 48.9494 494.378 45.9315 495.542 41.7168C494.281 42.1084 492.226 41.5767 494.102 36.3176C494.016 34.6741 492.693 31.7754 488.086 33.3283C486.768 33.0334 484.852 31.5494 487.732 27.9715M472.679 40.4453L475.321 38.367M487.732 27.9715C487.123 28.6965 486.556 29.359 486.085 29.8997L483.599 31.8555M487.732 27.9715C490.173 25.0665 493.286 21.158 493.529 20.0567C493.886 18.4457 496.784 12.2492 500.006 11.7259M475.321 38.367C475.688 41.0469 477.445 45.6416 481.539 42.5817C485.634 39.5218 484.619 34.1559 483.599 31.8555M475.321 38.367L483.599 31.8555M501.477 11.9362C501.158 11.8583 500.879 11.7749 500.665 11.7009C500.444 11.6811 500.225 11.6905 500.006 11.7259M501.477 11.9362L502.245 10.5571M501.477 11.9362C501.789 12.0123 502.139 12.0833 502.505 12.1352M510.52 12.4965L511.054 10.3623M510.52 12.4965C510.004 12.3027 509.455 12.1634 508.903 12.0667M517.488 19.6551L518.594 18.5892M517.488 19.6551C517.157 19.0291 516.498 18.6309 515.801 18.4M517.488 19.6551C517.827 20.2964 517.821 21.1768 517.159 22.3615M517.929 29.1967L520.274 28.8113M517.929 29.1967C517.927 28.6324 517.822 28.0836 517.666 27.5935M517.929 29.1967C517.932 29.7747 517.825 30.3689 517.552 30.9328M493.112 30.292C493.306 29.2288 494.13 27.3399 495.877 28.2904M495.877 28.2904C497.625 29.2409 497.006 31.1254 496.478 31.9488M495.877 28.2904L496.903 26.4642M500.006 11.7259C498.816 14.3437 496.718 19.6874 497.85 20.1202C498.982 20.553 501.425 14.9772 502.505 12.1352M502.505 12.1352C503.408 12.2637 504.402 12.2758 505.128 11.9619C506.025 11.8511 507.47 11.8156 508.903 12.0667M515.801 18.4C513.64 19.5974 509.436 22.3046 509.907 23.5534C510.377 24.8022 514.937 23.2791 517.159 22.3615M517.159 22.3615C517.006 22.6339 516.819 22.9224 516.594 23.2278C516.27 23.9441 515.918 25.5711 517.107 26.3482C517.307 26.6768 517.511 27.1061 517.666 27.5935M517.666 27.5935C514.652 27.68 508.799 28.2441 509.498 29.8089C510.197 31.3737 515.159 31.2102 517.552 30.9328M386.962 112.611C389.7 114.48 396.125 117.665 399.916 115.45C399.679 117.626 397.737 122.174 391.868 122.961C393.479 124.023 397.383 125.856 400.11 124.701C399.963 126.272 398.788 129.427 395.259 129.476C395.674 131.103 397.185 134.066 399.913 132.911C399.384 133.955 397.683 136.018 395.102 135.912M395.102 135.912C380.679 133.685 367.539 142.357 362.772 146.972C370.645 142.651 388.937 134.984 399.127 138.887M395.102 135.912C396.033 136.805 397.648 138.142 399.127 138.887M396.339 143.444C399.637 144.007 403.63 138.046 401.727 139.243C401.105 139.634 400.148 139.402 399.127 138.887M396.339 143.444C397.137 144.934 399.428 147.71 402.212 146.899C401.976 147.42 401.479 148.26 400.788 148.992M396.339 143.444C387.264 141.399 372.613 152.574 366.422 158.417C375.224 153.699 394.419 145.208 400.788 148.992M470.856 169.874C472.981 170.704 476.786 173.276 474.999 176.929C475.337 178.089 475.123 180.776 471.563 182.245M470.856 169.874C469.869 168.71 466.427 170.049 464.83 170.865M470.856 169.874C471.312 168.68 471.494 167.741 471.476 167.01M471.563 182.245C472.216 183.98 471.824 187.33 465.027 186.856M471.563 182.245C471.322 180.782 467.564 177.635 465.714 176.245M465.027 186.856C464.58 189.066 462.558 192.676 458.048 189.439C457.416 188.239 454.866 186.021 449.287 184.543M465.027 186.856C464.674 184.704 460.956 182.257 459.142 181.303M328.886 149.226C337.141 151.582 353.02 168.54 359.927 176.724L364.446 175.981C365.037 176.554 365.652 177.079 366.278 177.559M471.476 167.01C471.408 164.273 468.537 164.439 466.743 165.025C466.692 162.558 461.009 164.199 458.174 165.328C455.988 163.668 454.477 163.941 453.395 164.493M471.476 167.01C472.287 166.987 473.938 167.113 474.051 167.802M417.971 162.101L410.892 161.385L407.284 160.282M417.971 162.101C419.103 168.314 420.654 181.247 417.804 183.275M417.971 162.101L419.657 162.271M417.804 183.275C416.505 183.367 415.397 183.463 414.535 183.551C408.11 184.254 395.638 184.996 385.643 183.924M417.804 183.275C418.886 183.198 420.1 183.124 421.416 183.059M421.416 183.059C427.218 182.773 435 182.67 442.125 183.326C444.929 183.585 447.3 184.017 449.287 184.543M421.416 183.059C424.34 180.229 429.397 173.66 426.236 170.025C423.074 166.389 421.228 167.57 420.699 168.614C420.376 166.645 419.714 162.619 419.657 162.271M419.657 162.271L425.051 162.816C428.099 162.536 436.23 162.525 444.371 164.723C446.297 164.333 450.332 163.876 451.075 165.169C451.557 166.007 452.227 165.088 453.395 164.493M449.287 184.543C450.76 184.092 453.994 182.392 455.149 179.197C456.303 176.001 458.59 174.358 459.589 173.936C460.647 173.652 462.46 172.448 461.247 169.906C460.034 167.365 455.507 165.238 453.395 164.493M401.583 158.537L398.674 157.647C399.529 157.784 400.475 157.449 401.32 156.939M401.583 158.537C397.569 159.441 388.336 163.192 383.514 170.969C389.238 166.576 402.006 158.289 407.284 160.282M401.583 158.537L407.284 160.282M379.513 182.937C378.34 182.667 377.25 182.355 376.264 181.995C374.385 181.734 370.113 180.495 366.278 177.559M379.513 182.937C387.442 179.853 403.287 172.669 403.239 168.611C404.426 171.355 402.57 178.26 385.643 183.924M379.513 182.937C381.378 183.366 383.451 183.689 385.643 183.924M401.32 156.939C403.168 155.826 404.534 153.88 403.414 154.216C401.782 154.705 396.466 150.938 398.69 150.351C399.499 150.138 400.211 149.602 400.788 148.992M48.6803 121.24L52.7092 120.204M340.102 111.91C339.884 113.272 342.656 116.021 344.07 117.225L339.054 115.618L332.244 114.527M340.102 111.91C340.163 111.605 339.549 110.962 336.609 110.826M340.102 111.91C340.332 110.841 340.622 108.619 339.949 108.288M338.941 86.0207C338.963 86.8274 339.226 88.6924 340.098 89.6983M338.941 86.0207C336.832 86.1832 332.059 87.0413 329.845 89.1733C327.632 91.3052 325.705 91.5483 325.018 91.4033L321.252 92.0223C317.716 89.3325 313.393 87.015 311.674 86.1924C309.457 83.4626 308.741 83.1383 307.217 83.2783C305.998 83.3903 289.737 78.6736 281.759 76.3013C277.699 74.4636 264.964 70.1326 246.498 67.5096C228.032 64.8867 198.36 66.8756 185.832 68.1979M340.098 89.6983C340.228 90.2663 340.241 91.6419 339.249 92.6005M340.098 89.6983C339.368 89.0226 337.068 89.8648 336.009 90.3703M339.249 92.6005C339.11 93.3233 339.007 94.8946 339.709 95.3981M339.249 92.6005C339.079 91.5676 334.672 92.5424 332.49 93.159M339.709 95.3981C339.964 96.056 340.288 97.5793 339.541 98.4095M339.709 95.3981C338.894 94.206 333.609 94.8168 331.069 95.2712M339.541 98.4095C339.372 99.174 339.152 100.883 339.623 101.601M339.541 98.4095C337.751 97.2008 332.569 97.6767 330.202 98.0658M339.623 101.601C340.409 102.798 341.659 105.377 340.366 106.12M339.623 101.601C337.934 100.464 332.945 100.636 330.662 100.863M340.366 106.12C339.946 106.705 339.276 107.957 339.949 108.288M340.366 106.12C339.236 104.626 334.522 103.286 332.306 102.803M339.949 108.288C337.198 107.149 331.109 106.721 328.408 106.649M185.832 68.1979L162.16 72.0886C134.447 74.5218 120.481 79.823 116.962 82.1695L65.3837 107.223L52.1324 116.694M185.832 68.1979C161.29 76.2098 109.493 93.7406 98.6369 99.7683C87.7812 105.796 63.1107 113.564 52.1324 116.694M230.504 149.041C233.461 146.418 241.536 140.862 250.173 139.62C251.277 139.461 252.497 139.189 253.8 138.828M230.504 149.041C230.162 149.86 228.364 151.594 226.35 153.355M230.504 149.041C222.412 150.371 204.899 145.463 197.154 142.843M292.96 117.558C287.548 119.148 277.051 122.693 278.352 124.158C279.654 125.624 282.051 124.25 283.087 123.38M292.96 117.558C294.763 114.934 297.925 113.018 301.059 111.705M292.96 117.558C292.361 118.429 291.692 119.237 290.982 119.983M308.441 109.553C243.162 89.6529 191.197 92.6617 172.861 96.8517C164.321 99.5813 142.983 104.945 125.947 104.562C108.91 104.18 95.8931 108.176 91.5143 110.222L52.7092 120.204M308.441 109.553C310.909 110.305 313.396 111.09 315.901 111.909L325.435 113.436M308.441 109.553C306.674 109.833 303.877 110.525 301.059 111.705M168.657 100.858C184.265 106.175 217.05 117.746 223.323 121.489C228.618 124.648 243.36 131.156 253.231 135.367M258.114 137.43C251.515 136.979 235.144 134.78 222.444 129.59C209.745 124.4 195.085 119.562 189.342 117.791C197.413 118.486 216.279 121.661 227.179 128.812C229.292 130.017 237.462 133.014 253.231 135.367M258.114 137.43C256.713 136.845 255.055 136.145 253.231 135.367M258.114 137.43C256.611 137.976 255.16 138.451 253.8 138.828M258.114 137.43C259.428 136.953 260.783 136.421 262.151 135.852M230.564 106.375C225.44 103.89 215.554 98.4249 216.997 96.449C218.441 94.473 231.155 104.596 237.332 109.904C244.835 117.006 261.457 131.628 267.919 133.293M267.919 133.293C270.126 132.258 272.275 131.192 274.257 130.171M267.919 133.293C266.016 134.186 264.069 135.055 262.151 135.852M243.93 101.637C250.231 109.944 265.118 127.28 274.257 130.171M274.257 130.171C277.063 128.725 279.534 127.368 281.359 126.316C282.591 125.891 284.664 124.932 286.855 123.446M241.825 88.8321C237.703 88.4045 228.685 87.1461 225.591 85.5329C222.497 83.9197 221.719 85.2852 221.717 86.1696C222.115 87.246 228.456 90.0569 250.637 92.6882C272.817 95.3195 304.44 104.037 317.48 108.067C322.309 109.662 331.359 112.234 328.921 109.769C326.482 107.304 321.493 106.039 319.303 105.714C316.333 104.397 308.725 101.728 302.049 101.588C293.126 97.9504 271.121 90.3769 254.481 89.1832M247.948 76.3329C244.832 75.2981 239.664 74.3351 243.927 78.7619C248.191 83.1887 264.81 87.4854 272.587 89.0805C284.841 92.5918 311.153 99.6938 318.366 100.011M299.59 86.6314C297.994 84.5363 294.061 80.6888 291.103 82.0589C288.146 83.429 304.693 92.1285 313.337 96.3069C316.351 97.6164 323.209 100.298 326.521 100.549M52.1324 116.694L35.9834 123.327L124.666 147.871L138.604 151.989L145.443 155.949L152.253 157.04L156.262 159.917M190.191 139.09C192.009 140.138 194.409 141.446 197.154 142.843M226.35 153.355C224.629 154.861 222.749 156.386 221.486 157.374L216.489 163.279L204.649 182.685L194.013 177.14L187.242 174.938L180.117 170.583L173.631 168.776L160.271 162.794L156.262 159.917M226.35 153.355C218.293 152.716 205.954 147.323 197.154 142.843M52.7092 120.204C66.4463 119.963 96.7935 118.405 108.285 114.096C119.777 109.786 138.754 108.079 146.806 107.764M100.602 246.199L114.252 235.115L120.708 234.054L119.859 228.889L123.29 233.63L122.441 228.465L124.947 230.263L125.954 228.993M100.602 246.199L100.821 246.552M100.602 246.199C98.1546 244.215 95.5826 246.138 94.6027 247.348M126.961 227.722L125.954 228.993M125.954 228.993L126.465 224.709L132.276 223.754L135.436 221.467L139.74 220.759L144.69 219.946M125.303 151.744C123.291 151.004 120.94 150.42 118.38 149.966M125.303 151.744C121.48 150.428 120.638 159.398 120.694 164.048C115.89 160.637 117.15 153.239 118.38 149.966M125.303 151.744C127.166 152.43 129.104 153.085 131.067 153.705M156.262 159.917C153.407 159.412 148.37 158.382 142.623 156.945M102.241 148.59C100.934 152.745 99.6973 162.161 105.2 166.595M102.241 148.59C107.773 148.699 113.461 149.093 118.38 149.966M102.241 148.59C98.6723 148.52 95.1688 148.569 91.979 148.684M105.2 166.595C106.373 166.801 107.538 167.028 108.685 167.269M105.2 166.595C100.526 165.772 95.704 165.26 91.1803 165.341M114.121 149.604C110.459 151.736 104.245 158.253 108.685 167.269M108.685 167.269C116.399 168.89 123.368 171.195 127.442 172.831C151.389 174.377 168.476 181.337 174.026 184.624C164.73 190.568 158.633 198.185 154.842 205.016M131.067 153.705C130.942 156.808 131.787 163.763 136.169 166.756C136.321 163.648 137.825 157.335 142.623 156.945M131.067 153.705C134.952 154.932 138.934 156.022 142.623 156.945M80.7757 149.101L65.3649 147.451C64.8656 147.407 64.3421 147.364 63.7967 147.322M80.7757 149.101L82.4631 149.282C84.9391 149.046 88.244 148.819 91.979 148.684M80.7757 149.101C81.2549 154.034 83.1753 164.239 87.0237 165.6M87.0237 165.6C86.4016 165.669 85.7888 165.753 85.1866 165.852C75.4922 167.446 56.2776 166.157 40.2063 164.485M87.0237 165.6C88.3706 165.449 89.7608 165.366 91.1803 165.341M91.979 148.684C90.5653 152.409 88.4264 160.956 91.1803 165.341M40.2063 164.485C32.8742 163.722 26.1963 162.88 21.3753 162.195C16.1417 161.729 7.96568 159.139 17.1305 152.505C22.0368 148.954 32.0001 147.447 42.0808 146.979M40.2063 164.485C38.4708 162.891 35.5901 158.99 37.9506 156.14C40.9012 152.577 43.7983 149.36 42.0808 146.979M42.0808 146.979C45.7463 146.809 49.4274 146.776 52.8864 146.832M52.8864 146.832C55.2531 152.087 50.0054 158.215 47.0858 160.622C51.8119 160.913 61.7706 158.662 63.7967 147.322M52.8864 146.832C56.9604 146.898 60.7265 147.088 63.7967 147.322M125.907 265.689C128.087 263.71 133.664 260.17 138.536 261.845C142.718 263.282 157.705 260.056 167.661 257.509M125.907 265.689C123.201 265.36 117.5 257.567 115.859 253.637C114.547 250.494 112.041 250.802 110.952 251.35L108.939 253.891M125.907 265.689C124.398 271.845 119.276 276.181 115.874 278.499M251.444 211.904C244.736 213.669 227.654 220.455 212.996 233.473C198.339 246.491 189.488 249.566 186.895 249.477C189.739 247.418 189.139 245.203 188.484 244.353C188.069 245.235 186.94 246.376 185.426 247.618M253.8 138.828C255.671 151.11 264.97 176.13 287.195 177.959C277.815 170.197 259.675 150.91 262.151 135.852M301.059 111.705C299.841 119.086 300.44 136.176 312.581 145.497C310.263 138.12 309.59 121.382 325.435 113.436M325.435 113.436C319.937 121.943 328.089 134.07 332.852 139.07C330.817 133.185 327.845 120.037 332.244 114.527M325.435 113.436L332.244 114.527M369.879 75.2357C369.717 74.2524 370.004 71.5663 372.45 68.689M363.488 67.9517C362.736 70.1013 362.543 74.9806 367.787 77.3014M182.925 249.526C183.933 251.624 185.618 256.229 184.294 257.86C187.571 257.175 194.024 255.2 193.628 252.79C194.854 254.873 197.091 259.338 196.228 260.54C198.302 260.163 202.694 258.329 203.664 254.014C204.986 256.228 207.144 261.2 205.203 263.375C207.732 262.849 213.028 260.829 213.983 256.959C214.917 258.832 216.49 263.067 215.31 265.029C216.517 264.98 218.547 264.534 220.332 263.314M182.925 249.526C181.668 250.429 180.306 251.344 178.947 252.217M182.925 249.526C183.827 248.878 184.674 248.236 185.426 247.618M366.278 177.559C363.854 180.015 360.687 182.574 356.972 185.166M323.838 203.229C303.778 212.242 282.477 219.238 271.038 220.176C269.759 220.281 268.496 220.445 267.25 220.662M323.838 203.229C307.543 199.292 299.384 179.283 297.342 169.771C302.971 179.817 318.734 199.337 336.745 197.047M323.838 203.229C328.239 201.251 332.581 199.176 336.745 197.047M336.745 197.047C340.877 194.934 344.834 192.768 348.503 190.589M356.972 185.166C344.769 185.846 329.761 175.751 323.782 170.619C326.258 176.715 334.667 189.243 348.503 190.589M356.972 185.166C354.391 186.966 351.547 188.782 348.503 190.589M241.613 183.019C245.94 188.276 256.177 199.014 262.514 199.917C268.851 200.821 268.312 214.123 267.25 220.662M267.25 220.662C265.067 221.041 262.939 221.58 260.879 222.243M241.79 184.095C243.974 191.104 250.85 205.061 260.89 204.826C263.295 206.463 266.661 212.24 260.879 222.243M260.879 222.243C248.305 226.288 238.29 234.916 234.226 239.598C231.245 244.324 224.913 254.876 223.426 259.275C222.799 261.128 221.631 262.426 220.332 263.314M153.343 207.915C156.795 221.343 166.749 249.004 178.947 252.217M153.343 207.915C153.797 206.97 154.295 206.001 154.842 205.016M153.343 207.915C152.192 210.314 151.333 212.561 150.722 214.534M178.947 252.217C176.42 253.841 173.906 255.322 172.108 256.327C170.81 256.687 169.304 257.089 167.661 257.509M154.842 205.016C160.382 218.804 174.254 246.627 185.426 247.618M144.69 219.946L149.639 219.132C149.819 217.883 150.169 216.321 150.722 214.534M144.69 219.946C148.067 227.495 154.67 244.628 154.063 252.773C156.74 249.497 159.818 237.262 150.722 214.534M286.855 123.446C288.385 133.207 293.509 153.714 301.761 157.662C297.405 149.759 289.15 131.158 290.982 119.983M286.855 123.446C288.244 122.504 289.682 121.349 290.982 119.983M167.661 257.509C167.362 261.681 165.649 271.666 161.191 278.234L158.927 282.363M158.927 282.363L158.058 285.821M158.927 282.363L158.144 279.619L157.354 280.08M175.925 299.721C186.811 294.687 212.02 279.439 220.332 263.314M158.058 285.821L157.581 286.95M158.058 285.821L158.489 285.75M168.716 297.551L158.919 285.68L158.489 285.75M168.716 297.551C169.71 296.651 172.26 295.444 174.506 297.815C176.175 299.899 179.31 304.452 178.503 305.999C178.383 306.23 178.186 306.525 177.932 306.867M168.716 297.551L169.807 298.809M157.103 288.078C156.881 288.741 155.916 289.864 153.838 289.056C151.761 288.249 149.068 287.373 147.981 287.035C147.372 286.694 146.546 285.835 148.111 285.136M157.103 288.078L162.193 296.855C164.378 300.29 169.016 307.846 170.085 310.587M157.103 288.078L157.581 286.95M148.111 285.136L151.698 284.104C153.049 283.808 155.652 282.747 155.255 280.867L156.27 280.258M148.111 285.136C146.916 284.824 145.539 284.717 144.176 284.729M148.79 285.908C150.223 286.556 153.626 287.898 155.777 288.075M170.085 310.587L171.133 311.917M170.085 310.587C169.397 310.436 168.125 310.495 168.541 311.946C168.956 313.398 169.459 314.396 169.658 314.713M172.18 313.248C171.905 313.529 171.65 313.787 171.422 314.014L170.147 314.997M172.18 313.248C173.992 311.399 176.671 308.559 177.932 306.867M172.18 313.248L171.657 312.583M169.807 298.809C170.266 298.241 171.745 297.154 172.838 298.421C173.799 299.545 176.163 302.809 177.932 306.867M169.807 298.809C171.185 300.019 173.993 303.027 174.202 305.38C174.689 306.434 174.861 309.35 171.657 312.583M157.581 286.95L160.607 292.585L166.271 300.827C168.005 303.532 171.405 309.538 171.133 311.917M171.133 311.917C174.231 308.985 173.062 305.39 172.09 303.959C170.231 301.612 166.094 296.524 164.42 294.942C162.746 293.361 159.768 288.156 158.489 285.75M171.133 311.917L171.657 312.583M129.982 287.121C130.158 285.95 130.377 283.475 129.848 282.943M129.982 287.121C130.103 287.028 130.28 286.96 130.507 286.954M129.982 287.121L130.116 289.972M129.848 282.943C130.058 282.651 130.839 282.25 132.286 282.985C133.733 283.719 136.651 284.219 137.93 284.378C138.193 284.408 138.596 284.666 138.107 285.454M129.848 282.943C129.114 282.511 127.147 281.84 125.152 282.61M138.107 285.454C137.617 286.241 137.664 291.052 137.748 293.359C137.849 293.747 137.914 294.503 137.369 294.415M138.107 285.454C139.185 285.195 141.114 284.859 143.186 284.758M137.369 294.415L133.741 289.818C132.361 287.511 131.203 286.936 130.507 286.954M137.369 294.415L140.998 299.013C141.195 299.195 141.419 299.5 141.587 299.911M143.186 284.758C142.342 284.998 140.874 285.618 141.762 286.179C141.775 285.806 142.275 284.995 144.176 284.729M143.186 284.758C143.514 284.742 143.844 284.732 144.176 284.729M130.507 286.954L131.459 300.139L132.089 306.666C132.171 307.389 132.429 308.599 132.804 307.653C133.179 306.707 133.332 306.83 133.361 307.009L133.697 309.053C133.726 309.454 133.96 310.248 134.663 310.221C135.366 310.194 136.349 312.412 136.753 313.524C136.937 313.973 137.118 315.343 136.368 317.234M125.152 282.61C124.597 282.149 123.15 281.724 121.797 283.714C120.445 285.704 119.983 288.138 119.921 289.106L121.049 295.33M125.152 282.61C124.103 283.015 123.93 286.077 124.124 289.63M141.587 299.911C141.938 300.771 142.039 302.098 141.113 303.746L138.16 313.735M141.587 299.911L143.508 301.508M158.634 316.89C158.286 318.538 157.221 323.31 156.732 325.49C156.594 325.992 156.474 327.146 157.104 327.75C157.733 328.354 158.689 329.773 159.088 330.408M158.634 316.89C158.729 316.442 158.681 315.964 158.544 315.489M158.634 316.89C159.379 317.614 160.823 319.315 160.634 320.318M159.088 330.408L159.864 327.738M159.088 330.408L157.957 330.925C157.67 331.193 156.682 331.908 157.362 332.68C157.727 333.096 158.345 333.13 158.859 333.05M159.088 330.408C159.47 330.271 160.215 329.869 160.13 329.352M159.864 327.738C158.644 328.381 157.696 327.321 158.846 326.248C159.265 325.857 159.73 325.538 160.155 325.292M159.864 327.738C160.053 327.652 160.221 327.558 160.371 327.459M158.544 315.489C159.612 316.669 161.676 319.263 161.387 320.194M158.544 315.489C158.475 315.251 158.384 315.014 158.278 314.781M158.544 315.489C159.23 315.494 160.8 315.612 161.588 316.039C162.318 316.435 162.9 316.761 163.768 316.82M161.387 320.194L160.634 320.318M161.387 320.194C161.935 320.104 162.746 319.957 163.483 319.794M160.634 320.318C159.601 320.488 159.551 321.675 159.654 322.247C159.842 322.54 160.195 322.799 160.713 322.816M150.685 307.477L156.565 312.367C156.943 312.739 157.475 313.365 157.911 314.091M150.685 307.477C150.331 306.688 149.966 304.899 151.331 304.056C152.695 303.213 155.348 305.863 156.504 307.294L161.838 314.196C161.957 314.399 162.111 314.631 162.294 314.872M150.685 307.477L149.464 306.462M167.258 316.246L166.002 316.673C165.599 316.842 165.195 316.86 164.803 316.774M167.258 316.246L166.166 315.652M167.258 316.246L167.804 316.543M149.464 306.462C149.244 305.688 149.212 303.94 150.849 303.14C152.486 302.341 154.755 304.045 155.685 304.998L161.477 312.002L163.73 314.947C164.099 315.402 165.104 316.18 166.166 315.652M149.464 306.462L145.359 303.048M166.166 315.652L164.394 314.285C164.226 312.722 165.553 312.592 166.237 312.722L169.658 314.713M170.147 314.997L168.35 316.84L167.804 316.543M170.147 314.997L169.658 314.713M157.911 314.091C158.566 313.901 160.36 313.793 162.294 314.872M157.911 314.091C158.045 314.313 158.169 314.545 158.278 314.781M162.294 314.872C162.436 315.059 162.594 315.25 162.766 315.437M158.278 314.781C158.492 314.474 159.691 314.174 162.766 315.437M162.766 315.437C163.329 316.046 164.042 316.606 164.803 316.774M164.803 316.774C164.411 316.828 164.072 316.84 163.768 316.82M165.208 319.235C165.424 318.934 167.029 317.315 167.804 316.543M165.208 319.235C165.092 319.397 164.338 319.606 163.483 319.794M165.208 319.235C163.806 321.176 162.662 322.151 161.777 322.564M163.768 316.82C164.019 317.33 164.314 318.641 163.483 319.794M161.777 322.564L161.359 324.73M161.777 322.564C161.367 322.755 161.012 322.826 160.713 322.816M161.359 324.73C161.112 324.811 160.662 324.999 160.155 325.292M161.359 324.73C161.588 325.319 161.659 326.602 160.371 327.459M160.713 322.816L160.155 325.292M160.371 327.459C162.735 330.007 160.772 332.136 159.494 332.882C159.335 332.945 159.11 333.011 158.859 333.05M139.989 325.148C139.876 325.497 139.857 326.221 140.302 327.05M139.989 325.148L154.61 326.944M139.989 325.148L140.214 323.343M154.712 323.281C154.836 323.79 154.858 324.456 154.809 325.218M154.712 323.281L140.425 321.651M154.712 323.281C154.587 322.77 154.466 322.311 154.351 321.903M153.537 319.496L152.633 318.373M153.537 319.496L151.186 337.462M153.537 319.496C153.665 319.758 153.971 320.548 154.351 321.903M153.537 319.496L140.83 318.4M143.888 307.854C144.17 308.029 144.438 308.253 144.652 308.469L144.927 308.81M143.888 307.854L141.691 328.625M143.888 307.854C143.559 307.651 143.21 307.516 142.9 307.541M141.691 328.625C141.585 328.531 141.489 328.447 141.404 328.374C141.094 328.11 140.845 327.844 140.645 327.582M141.691 328.625C141.992 328.894 142.371 329.247 142.804 329.658M141.691 328.625L153.921 330.373M145.202 309.152L142.804 329.658M145.202 309.152L146.04 310.191M145.202 309.152L144.927 308.81M142.804 329.658C143.163 330 143.56 330.382 143.981 330.791M146.46 310.713L143.981 330.791M146.46 310.713L147.64 312.177M146.46 310.713L146.04 310.191M143.981 330.791C144.322 331.123 144.68 331.472 145.045 331.832M143.981 330.791L153.608 331.675M147.64 312.177L145.045 331.832M147.64 312.177L148.539 313.293M147.64 312.177L141.634 311.948M145.045 331.832C145.298 332.08 145.555 332.334 145.813 332.589M148.539 313.293L146.1 332.874M148.539 313.293L149.094 313.982M146.1 332.874C146.419 333.19 146.738 333.507 147.054 333.822M146.1 332.874C146.004 332.779 145.908 332.684 145.813 332.589M149.65 314.671L147.054 333.822M149.65 314.671L150.737 316.021M149.65 314.671L149.094 313.982M147.054 333.822C147.213 333.981 147.372 334.139 147.529 334.296M150.737 316.021L148.003 334.771M150.737 316.021L151.728 317.251M150.737 316.021L141.212 315.333M148.003 334.771C148.41 335.179 148.802 335.573 149.167 335.941M148.003 334.771C147.847 334.615 147.689 334.456 147.529 334.296M151.728 317.251L149.167 335.941M151.728 317.251L152.181 317.812M149.167 335.941C149.319 336.094 149.467 336.242 149.609 336.386M152.633 318.373L150.079 336.861M152.633 318.373L152.181 317.812M150.079 336.861C150.176 336.96 150.27 337.055 150.36 337.146C150.571 337.298 150.871 337.439 151.186 337.462M150.079 336.861C149.93 336.711 149.773 336.552 149.609 336.386M151.186 337.462C151.617 337.495 152.077 337.306 152.373 336.622M142.9 307.541L140.645 327.582M142.9 307.541C142.456 307.577 142.091 307.942 141.978 308.908M140.645 327.582C140.508 327.402 140.395 327.224 140.302 327.05M149.609 336.386L152.373 336.622M152.373 336.622C152.459 336.424 152.532 336.184 152.586 335.897C152.634 335.639 152.702 335.33 152.785 334.98M147.529 334.296L152.785 334.98M152.785 334.98C152.896 334.508 153.033 333.962 153.184 333.367M145.813 332.589L153.184 333.367M153.184 333.367C153.318 332.836 153.462 332.266 153.608 331.675M153.608 331.675C153.713 331.25 153.819 330.813 153.921 330.373M153.921 330.373C154.07 329.734 154.213 329.087 154.34 328.45M140.302 327.05L154.34 328.45M154.34 328.45C154.442 327.937 154.534 327.432 154.61 326.944M154.61 326.944C154.704 326.335 154.774 325.753 154.809 325.218M140.214 323.343L154.809 325.218M140.214 323.343L140.425 321.651M140.425 321.651L140.587 320.353M140.587 320.353L154.351 321.903M140.587 320.353L140.83 318.4M140.83 318.4L141.021 316.867M141.021 316.867L152.181 317.812M141.021 316.867L141.212 315.333M141.212 315.333L141.466 313.291M141.466 313.291L149.094 313.982M141.466 313.291L141.634 311.948M141.634 311.948L141.859 310.143M141.859 310.143L141.943 309.466C141.946 309.261 141.958 309.076 141.978 308.908M141.859 310.143L146.04 310.191M141.978 308.908L144.927 308.81M138.16 313.735L137.988 314.316L135.007 324.42L134.052 326.676C133.974 327.094 133.587 327.88 132.67 327.677L129.697 326.398L131.313 332.873M138.16 313.735C138.446 314.001 138.965 315.15 138.751 317.616C138.538 320.082 137.679 325.657 137.276 328.136C136.783 329.395 136.344 332.687 138.531 335.775C139.716 337.448 140.514 338.75 141.021 339.676M146.132 367.899L145.973 366.931L144.032 361.172C143.56 358.303 142.673 351.693 142.896 348.208C143.118 344.724 142.222 342.094 141.746 341.214C141.673 340.973 141.451 340.459 141.021 339.676M146.132 367.899C144.936 368.276 142.639 368.438 141.402 366.798M146.132 367.899C147.411 367.836 150.247 368.195 151.362 370.134C152.476 372.073 154.713 373.267 155.692 373.622M131.313 332.873C132.172 334.733 134.248 339.027 135.686 341.326C137.125 343.626 136.84 345.656 136.518 346.383C136.278 346.496 135.805 347.429 135.828 350.254C135.85 353.079 138.17 355.763 139.327 356.751C139.869 357.583 140.898 359.587 140.68 360.949C140.462 362.311 140.63 364.457 140.742 365.36C140.888 365.948 141.117 366.421 141.402 366.798M131.313 332.873L137.731 340.99L139.427 343.916C139.755 344.562 140.168 346.137 139.205 347.268C138.241 348.399 137.722 350.127 137.583 350.85C137.701 351.788 138.29 353.938 139.707 355.031C141.124 356.124 141.606 358.513 141.669 359.571L141.402 366.798M155.692 373.622C154.482 375.942 150.677 376.73 148.926 376.833C146.738 374.946 141.549 370.001 138.304 365.318C137.349 363.94 136.365 361.873 135.416 359.494M155.692 373.622C155.607 373.105 156.508 372.309 156.968 371.975C158.188 371.863 158.162 369.827 157.997 368.822M130.3 343.096C130.226 342.798 130.156 342.514 130.091 342.246L128.048 332.084M130.3 343.096C130.774 342.981 131.782 342.985 132.024 343.917C132.265 344.85 131.358 345.242 130.875 345.322M130.3 343.096C130.469 343.773 130.662 344.521 130.875 345.322M130.875 345.322C131.854 348.999 133.267 353.785 134.815 357.935M134.815 357.935C135.1 357.741 135.736 357.496 136.007 358.071C136.279 358.645 135.726 359.259 135.416 359.494M134.815 357.935C135.013 358.466 135.214 358.987 135.416 359.494M121.049 295.33L124.649 315.182L128.048 332.084M121.049 295.33L122.325 296.336L121.73 297.428L122.572 297.842L122.193 298.899L122.873 299.671L122.547 301.051L123.244 301.931L122.865 302.988L123.545 303.76L123.201 305.032L123.934 306.127L123.876 307.794L124.949 308.944L124.336 310.592L124.977 312.476L125.526 315.811L126.152 316.261L125.645 318.554L127.023 319.544L126.551 322.052L127.929 323.041L127.762 326.384L128.261 327.076L128.098 328.428L128.991 329.497L128.814 330.443L129.291 331.327L128.048 332.084M143.508 301.508L145.555 289.755L145.359 303.048M143.508 301.508L145.359 303.048M124.124 289.63C124.299 292.834 124.772 296.437 125.169 298.852L129.219 323.492L129.974 322.705C130.505 323.023 131.661 323.29 132.037 321.814C132.414 320.337 131.474 311.887 130.957 307.846L130.116 289.972M124.124 289.63C124.761 291.11 126.851 293.249 130.116 289.972M141.021 339.676C143.115 340.305 146.697 341.722 149.774 343.735M156.326 348.211L155.119 349.183L154.655 348.486C153.641 346.676 151.819 345.074 149.774 343.735M156.326 348.211C156.255 347.781 155.824 346.437 154.664 344.506C153.504 342.575 153.494 340.794 153.634 340.145L155.238 333.913L158.16 336.196M156.326 348.211L156.645 348.546M157.007 344.674C156.703 345.342 156.962 347.223 157.13 348.079L156.963 348.88L156.645 348.546M157.007 344.674L155.636 344.015C155.152 343.431 154.576 342.222 156.139 342.053L157.17 342.52M157.007 344.674C157.99 344.512 158.032 343.4 157.93 342.864L157.17 342.52M158.16 336.196L156.76 337.089C156.391 337.26 155.812 337.797 156.452 338.576C156.804 339.005 157.328 338.982 157.814 338.798M158.16 336.196L158.51 334.623M158.859 333.05L158.51 334.623M158.51 334.623C160.908 336.376 159.715 337.729 158.819 338.187C158.584 338.391 158.212 338.648 157.814 338.798M157.814 338.798L157.17 342.52M156.645 348.546C156.295 349.726 155.982 354.434 157.524 363.817L157.997 368.822M157.997 368.822C153.646 366.554 151.847 356.351 150.957 352.74C150.244 349.852 148.989 349.085 148.451 349.063C147.561 349.026 145.782 348.287 145.788 345.633C145.794 342.98 148.448 343.263 149.774 343.735M108.939 253.891C109.51 248.758 104.322 247.761 101.656 247.905L100.821 246.552M108.939 253.891L107.184 255.063M89.5723 256.411L97.8032 247.322C99.7803 247.697 104.338 249.298 106.755 252.703C107.222 253.195 107.671 254.117 107.184 255.063M89.5723 256.411C91.0062 256.529 96.5815 259.163 99.1899 260.466M89.5723 256.411L82.3511 262.902M101.846 259.145C102.68 258.301 104.288 257.197 104.989 256.75C106.223 256.243 106.883 255.649 107.184 255.063M101.846 259.145C101.012 259.989 99.7279 260.377 99.1899 260.466M101.846 259.145L103.755 270.762M99.1899 260.466L94.0796 260.974C93.2629 261.108 92.1241 261.579 93.0244 262.474M74.6026 256.771C74.5613 256.52 74.6869 255.94 75.5194 255.626M74.6026 256.771C73.3454 256.053 72.0529 255.715 70.8738 255.6M74.6026 256.771L76.2297 257.259M75.5194 255.626C74.3886 254.663 71.9512 255.207 70.8738 255.6M75.5194 255.626C75.9726 255.455 78.7188 254.227 81.8017 252.836M100.821 246.552C99.1713 246.219 96.8363 246.663 94.6027 247.348M94.6027 247.348C92.4338 248.012 90.3605 248.902 89.1037 249.526C87.6234 250.199 85.5929 251.121 83.5504 252.045M99.7085 269C99.6584 267.351 96.3303 264.583 93.7523 263.017C93.4292 262.821 93.1916 262.64 93.0244 262.474M99.7085 269L98.9826 268.954M99.7085 269C100.785 269.181 102.268 269.721 103.755 270.762M93.0244 262.474C92.7791 264.393 92.111 269.033 91.4011 272.244C91.4001 272.686 91.6846 273.7 92.8308 274.219C93.0335 274.311 93.2466 274.426 93.4648 274.557M96.8208 277.652L98.1341 275.558M96.8208 277.652C96.2994 276.789 94.7884 275.356 93.4648 274.557M96.8208 277.652L97.2241 275.4M96.8208 277.652C95.9197 277.101 94.2599 276.46 94.8294 278.311C95.3989 280.163 97.2737 280.856 98.1399 280.972C99.9131 281.675 103.775 284.598 105.038 290.668M96.8208 277.652C104.485 281.255 105.119 286.455 105.653 288.357M98.1341 275.558C105.331 279.679 105.353 285.864 106.086 286.959M98.1341 275.558C97.8783 275.535 97.5584 275.484 97.2241 275.4M99.0348 273.642L99.5773 271.563M99.0348 273.642C101.919 275.402 107.493 280.135 107.21 285.227M99.0348 273.642C98.8065 273.54 98.537 273.432 98.248 273.329M106.086 286.959C106.672 287.835 107.061 286.394 107.183 285.563C107.195 285.451 107.204 285.339 107.21 285.227M106.086 286.959C105.482 287.059 105.545 287.932 105.653 288.357M99.5773 271.563C107.976 275.598 107.367 283.323 108.406 283.594M99.5773 271.563C99.3165 271.487 98.9884 271.378 98.6406 271.244M109.45 281.876C109.448 282.539 109.237 283.811 108.406 283.594M109.45 281.876C109.396 281.073 109.299 280.316 109.165 279.602M109.45 281.876C110.554 282.247 113.384 282.091 115.874 278.499M108.406 283.594C107.994 283.662 107.437 284.711 107.21 285.227M93.4648 274.557C91.9409 273.393 91.909 272.161 92.0836 271.69L93.5179 263.608C94.9404 264.419 98.0249 266.623 98.9826 268.954M98.9826 268.954L98.2566 268.907C97.5339 268.768 96.1238 268.705 96.2653 269.566C96.3715 270.212 97.5949 270.84 98.6406 271.244M98.248 273.329C96.927 272.86 95.2004 272.521 95.1626 273.615C95.1283 274.611 96.2389 275.151 97.2241 275.4M98.248 273.329L98.6406 271.244M105.038 290.668C105.421 290.531 106.079 289.878 105.653 288.357M105.038 290.668C104.637 290.38 104.116 291.335 103.906 291.848M95.7727 281.361L92.0863 278.43C91.8698 278.232 91.5165 278.014 91.1252 277.961M95.7727 281.361C102.864 284.837 103.481 289.266 103.906 291.848M95.7727 281.361C95.5373 281.288 95.0964 281.362 94.6057 281.499M94.412 288.546L94.2307 289.46C94.2125 289.601 94.1771 289.716 94.1288 289.809M94.412 288.546C101.5 293.349 101.742 297.508 102.369 298.4C102.59 298.715 102.72 298.612 102.792 298.33M94.412 288.546C94.2325 288.391 93.9531 288.16 93.6467 287.924M102.855 296.883C102.921 295.672 103.22 294.85 103.362 294.59M102.855 296.883C102.697 292.723 98.0053 288.573 94.9232 286.694M102.855 296.883C102.881 297.332 102.883 297.974 102.792 298.33M103.362 294.59C103.685 294.537 104.245 293.914 103.906 291.848M103.362 294.59C102.993 289.609 98.9095 285.678 96.0427 284.079M96.0427 284.079C95.5525 284.602 94.6423 285.856 94.9232 286.694M96.0427 284.079C95.6492 283.86 95.2787 283.684 94.9438 283.556M94.9232 286.694C94.604 286.5 94.302 286.329 94.0241 286.186M94.9438 283.556C94.7239 283.472 94.5195 283.408 94.334 283.365C92.3129 282.902 92.4061 282.393 92.7053 282.197C93.1624 281.993 93.9311 281.687 94.6057 281.499M94.9438 283.556C94.5727 284.04 93.8694 285.245 94.0241 286.186M94.0241 286.186C93.2317 285.777 92.6352 285.587 92.3927 285.674C91.2445 286.083 91.6911 286.784 92.4074 287.108C92.741 287.259 93.2199 287.596 93.6467 287.924M93.6467 287.924C93.7518 288.635 93.7112 289.988 92.7072 289.711M92.7072 289.711C92.7724 289.819 92.8319 289.921 92.8849 290.013C93.0889 290.111 93.4043 290.2 93.6801 290.144M92.7072 289.711C92.457 289.294 92.1229 288.768 91.7512 288.235M94.6057 281.499L91.9227 279.452C91.6304 279.242 90.9413 278.994 90.5239 279.682L89.5834 283.373C89.3613 283.814 89.1963 284.917 90.313 285.794C91.4296 286.672 91.7371 287.787 91.7512 288.235M91.7512 288.235C91.0879 287.285 90.3052 286.314 89.6673 285.901C88.579 285.195 88.2981 283.621 88.2937 282.922C88.4568 282.121 88.9703 280.18 89.7191 278.82C90.1281 278.076 90.6542 277.898 91.1252 277.961M73.6719 280.02C75.9127 279.495 81.1947 280.091 86.544 285.64M73.6719 280.02L71.5597 278.599C70.3121 278.539 70.7098 276.566 71.0645 275.587L74.1548 265.082M73.6719 280.02C74.0987 280.152 75.0215 280.836 75.2976 282.516C75.5737 284.196 75.3969 284.913 75.274 285.061C74.9428 286.184 74.7114 289.707 76.4352 294.816M92.4015 292.192C91.5031 291.898 89.9489 289.906 89.284 288.947C88.3787 287.687 87.4604 286.591 86.544 285.64M92.4015 292.192C93.8155 295.054 97.3635 300.991 100.244 301.843M92.4015 292.192C92.682 292.284 92.9069 292.197 93.0852 292.01M93.6801 290.144C93.861 290.108 94.0249 290.009 94.1288 289.809M93.6801 290.144C93.6444 290.698 93.478 291.598 93.0852 292.01M100.244 301.843L99.6384 300.175M100.244 301.843L100.99 305.036M94.1288 289.809C96.0881 291.623 100.314 295.997 101.541 298.978L99.6384 300.175M99.6384 300.175C97.2138 300.131 94.2593 294.714 93.0852 292.01M86.544 285.64C85.2794 286.659 83.9262 290.624 88.6309 298.337C93.3356 306.051 97.8379 311.632 99.501 313.458M99.501 313.458C99.7846 312.27 100.241 309.491 99.8004 307.884C99.3594 306.276 100.41 305.316 100.99 305.036M99.501 313.458C101.284 317.851 99.1809 320.547 97.9066 321.345M100.99 305.036C102.341 303.576 102.204 302.111 101.966 301.56C101.769 301.261 101.502 300.487 102.006 299.786C102.509 299.084 102.74 298.523 102.792 298.33M76.4352 294.816L85.0243 285.89C84.2748 284.467 82.0808 282.1 79.3012 284.015C76.5216 285.929 76.2324 292.013 76.4352 294.816ZM76.4352 294.816C76.9918 297.082 78.2802 301.873 78.9806 302.907M70.8738 255.6C69.1243 255.43 67.6244 255.753 66.8598 256.055C66.6961 256.214 66.5051 256.478 66.3271 256.848M81.8017 252.836C80.819 253.804 78.8279 255.989 78.7253 256.978C78.6226 257.967 78.8122 258.179 78.9198 258.161L80.4969 258.344C80.835 257.039 81.919 253.953 83.5504 252.045M81.8017 252.836C82.3771 252.576 82.9643 252.31 83.5504 252.045M82.3511 262.902L83.2377 263.589M82.3511 262.902L80.3514 269.808M82.3511 262.902L81.1351 262.227M82.3511 262.902L79.3897 263.389M89.1702 268.191L87.031 279.593M89.1702 268.191L88.3525 267.556M89.1702 268.191C89.2677 268.218 89.3922 268.32 89.4899 268.535M89.5504 270.504C89.2564 272.188 90.4777 276.177 91.1252 277.961M89.5504 270.504C89.6183 270.115 89.6478 269.787 89.6501 269.51M89.5504 270.504L84.9395 270.284M89.5504 270.504C89.3784 270.724 89.2197 271.262 89.0777 271.969M103.755 270.762C106.037 272.359 108.327 275.135 109.165 279.602M109.165 279.602C109.888 280.146 111.657 281.049 112.949 280.306C113.413 280.039 114.504 279.433 115.874 278.499M74.7982 273.426C73.2225 272.58 73.5822 272.079 73.3699 270.787C73.2002 269.754 75.0917 265.126 76.0587 262.942C77.7414 260.808 79.0091 260.946 79.4327 261.282L79.9191 261.552M74.7982 273.426C75.2343 273.546 75.8721 273.523 76.5662 273.425M74.7982 273.426C75.1185 273.598 75.6653 273.897 76.3472 274.276M74.7982 273.426L88.4411 277.151M85.0923 279.58C85.4806 279.903 85.8758 279.99 86.2543 279.927M85.0923 279.58L87.7971 267.126M85.0923 279.58C84.8334 279.365 84.444 279.088 83.9651 278.771M88.3763 278.046C88.3937 277.779 88.4154 277.477 88.4411 277.151M88.3763 278.046L77.2198 274.764M88.3763 278.046C88.2638 278.248 88.1133 278.481 87.9335 278.713M79.9191 261.552L81.1351 262.227M79.9191 261.552L79.3897 263.389M78.0189 268.145L78.3198 267.101M78.0189 268.145L87.2905 266.733M78.0189 268.145C77.9139 268.377 77.9333 268.802 78.4588 269.182M79.963 272.577C80.2384 272.493 80.5053 272.406 80.7637 272.316M79.963 272.577C79.8671 272.61 79.7619 272.645 79.6487 272.682M79.963 272.577L88.8276 273.485M87.031 279.593C86.7864 279.76 86.5246 279.881 86.2543 279.927M87.031 279.593C87.1608 279.504 87.2858 279.403 87.4047 279.294M88.3525 267.556L86.2543 279.927M88.3525 267.556L87.7971 267.126M88.3525 267.556L78.4588 269.182M87.7971 267.126L87.2905 266.733M86.7839 266.34L86.2902 268.715M86.7839 266.34L85.7707 265.554M86.7839 266.34L87.2905 266.733M86.2902 268.715C86.6669 268.563 86.9526 268.421 87.1075 268.309C87.0489 268.399 86.9722 268.503 86.8766 268.619M86.2902 268.715C85.8399 268.897 85.2595 269.093 84.6176 269.27M86.2902 268.715L80.3514 269.808M86.0748 269.421L83.9651 278.771M86.0748 269.421C86.4201 269.122 86.6858 268.848 86.8766 268.619M86.0748 269.421L89.6501 269.51M86.0748 269.421C85.7626 269.692 85.3854 269.984 84.9395 270.284M83.9651 278.771C83.6363 278.553 83.2653 278.316 82.8654 278.067M85.7707 265.554L84.6176 269.27M85.7707 265.554L85.0552 264.999M85.7707 265.554L78.3198 267.101M84.6176 269.27C84.3804 269.336 84.1348 269.398 83.8841 269.457M84.1058 270.806L82.6072 277.908M84.1058 270.806C84.4066 270.631 84.6843 270.456 84.9395 270.284M84.1058 270.806C83.789 270.99 83.4465 271.174 83.0775 271.356M82.6072 277.908C82.2792 277.705 81.9347 277.496 81.5802 277.284M82.6072 277.908C82.6945 277.961 82.7806 278.015 82.8654 278.067M85.0552 264.999L83.8841 269.457M85.0552 264.999L84.5897 264.638M83.8841 269.457C83.5298 269.539 83.1654 269.613 82.801 269.673M84.1242 264.277L82.801 269.673M84.1242 264.277L83.7619 263.996M84.1242 264.277L84.5897 264.638M82.801 269.673C82.2851 269.758 81.769 269.816 81.2801 269.833M82.3771 271.683L81.5802 277.284M82.3771 271.683C82.6204 271.575 82.8538 271.466 83.0775 271.356M82.3771 271.683C82.0135 271.844 81.6278 272.001 81.2194 272.153M81.5802 277.284C81.1567 277.03 80.719 276.772 80.2787 276.515M83.2377 263.589L81.2801 269.833M83.2377 263.589L83.7619 263.996M81.2801 269.833C80.9558 269.844 80.6436 269.837 80.3514 269.808M80.7637 272.316L80.2787 276.515M80.7637 272.316C80.9186 272.263 81.0705 272.208 81.2194 272.153M80.2787 276.515C79.8765 276.28 79.4721 276.046 79.0742 275.817M80.2787 276.515L87.9335 278.713M79.6487 272.682L79.0742 275.817M79.6487 272.682C79.2904 272.798 78.8528 272.928 78.3831 273.05M79.0742 275.817C78.737 275.624 78.4045 275.434 78.0818 275.251M78.3831 273.05L78.0818 275.251M78.3831 273.05C78.1073 273.121 77.8205 273.19 77.5322 273.251M78.3831 273.05L88.6774 274.681M78.0818 275.251C77.7847 275.082 77.496 274.919 77.2198 274.764M77.5322 273.251L77.2198 274.764M77.5322 273.251C77.2076 273.321 76.8811 273.381 76.5662 273.425M77.2198 274.764C76.9114 274.591 76.6186 274.427 76.3472 274.276M76.5662 273.425L76.3472 274.276M76.5662 273.425L88.5593 275.805M80.3514 269.808C80.1677 269.79 79.9919 269.763 79.826 269.726C79.6379 269.685 79.4677 269.639 79.3138 269.59M81.1351 262.227L79.3138 269.59M79.3138 269.59C78.9391 269.469 78.6614 269.329 78.4588 269.182M79.3897 263.389L79.0042 264.726M79.0042 264.726L83.7619 263.996M79.0042 264.726L78.6207 266.057M78.6207 266.057L84.5897 264.638M78.6207 266.057L78.3198 267.101M86.8766 268.619L89.4899 268.535M89.4899 268.535C89.5843 268.743 89.6538 269.057 89.6501 269.51M83.0775 271.356L89.0777 271.969M89.0777 271.969C89.0237 272.238 88.972 272.531 88.923 272.841M81.2194 272.153L88.923 272.841M88.923 272.841C88.89 273.049 88.8582 273.264 88.8276 273.485M88.8276 273.485C88.7736 273.873 88.7235 274.276 88.6774 274.681M88.6774 274.681C88.6344 275.058 88.595 275.437 88.5593 275.805M88.5593 275.805C88.5136 276.278 88.474 276.734 88.4411 277.151M87.9335 278.713C87.7774 278.915 87.5993 279.115 87.4047 279.294M82.8654 278.067L87.4047 279.294M63.8346 277.991L66.8984 276.461C66.9995 276.444 67.1044 276.406 67.2118 276.351M63.8346 277.991L63.1161 275.636M63.8346 277.991L63.8125 279.873M76.2297 257.259L77.2236 257.556C76.5643 259.401 75.3426 262.57 74.1548 265.082M76.2297 257.259C75.3775 259.469 73.5415 264.166 73.0156 265.27C72.4896 266.373 71.287 268.199 70.7514 268.975C69.7829 270.927 67.7191 275.134 67.2118 276.351M67.2118 276.351C68.2017 275.837 69.4104 273.802 69.9353 272.75L72.21 268.436C72.7647 267.819 73.4538 266.565 74.1548 265.082M78.9806 302.907C74.5542 303.635 73.9071 302.967 73.263 302.41C72.6189 301.853 71.9808 298.643 72.2904 296.492M78.9806 302.907C80.8216 302.678 85.0289 302.996 87.1301 306.098C89.9655 309.426 96.0902 317.135 97.9066 321.345M97.9066 321.345C98.1142 321.901 97.4658 323.65 93.2113 326.206C88.9568 328.762 86.1951 327.249 85.3461 326.172M63.1161 275.636C66.0847 275.947 66.8357 273.838 66.8402 272.745C66.9579 270.996 66.9694 266.539 66.074 262.704C65.4093 259.857 65.8144 257.914 66.3271 256.848M63.1161 275.636L59.2996 261.828C59.0178 260.786 58.9518 258.368 60.9417 257.028M60.9417 257.028C62.9316 255.687 65.3611 256.35 66.3271 256.848M60.9417 257.028C59.2147 257.054 56.0015 258.436 56.9648 263.759L62.3768 280.551L61.7812 282.306C62.5592 287.039 65.2023 297.742 69.5515 302.689M63.8125 279.873C64.8616 280.205 67.0816 281.206 67.5684 282.554C68.0551 283.902 67.6306 285.398 67.3575 285.978C66.9507 286.864 66.5208 288.955 68.0558 290.226C69.5907 291.497 71.0448 292.948 71.58 293.515C71.92 293.79 72.538 294.772 72.2904 296.492M63.8125 279.873C65.4437 279.936 68.9994 280.368 70.1726 281.59C71.3459 282.812 70.7292 283.856 70.2743 284.226C69.3525 284.893 67.7089 286.636 68.5083 288.273C68.7225 288.68 69.5377 289.695 71.0848 290.502C73.0186 291.51 74.9687 293.289 72.2904 296.492M69.5515 302.689C72.4546 308.474 79.6779 321.269 85.3461 326.172M69.5515 302.689C76.5616 310.377 89.5346 325.838 85.3461 326.172M155.567 285.457L156.786 285.478C157.207 284.672 157.89 282.379 157.266 279.653L156.19 279.829C156.373 280.499 156.506 282.562 155.567 285.457Z" stroke="#007C6D" stroke-width="0.6"/>
</svg>
