<svg width="19" height="19" viewBox="0 0 19 19" fill="none" xmlns="http://www.w3.org/2000/svg">
<path d="M16.1111 1H2.88889C1.84568 1 1 1.84568 1 2.88889V16.1111C1 17.1543 1.84568 18 2.88889 18H16.1111C17.1543 18 18 17.1543 18 16.1111V2.88889C18 1.84568 17.1543 1 16.1111 1Z" stroke="#4800BD" stroke-linecap="round" stroke-linejoin="round"/>
<path d="M9.5 15.4999C11.9853 15.4999 14 13.4852 14 10.9999C14 8.51466 11.9853 6.49994 9.5 6.49994C7.01472 6.49994 5 8.51466 5 10.9999C5 13.4852 7.01472 15.4999 9.5 15.4999Z" stroke="#4800BD" stroke-linecap="round" stroke-linejoin="round"/>
<path d="M14.2222 4.77777H14.2322" stroke="#4800BD" stroke-linecap="round" stroke-linejoin="round"/>
</svg>
